<svg xmlns="http://www.w3.org/2000/svg" viewBox="0 0 800 500">
<rect width="800" height="500" fill="#F5EDD8"/>
<circle cx="400" cy="215" r="150" fill="#FBF3E4"/>
<rect x="270" y="300" width="260" height="110" fill="#E8D5B0"/>
<path d="M400 105 Q505 150 505 235 L295 235 Q295 150 400 105" fill="#C07840"/>
<path d="M400 105 Q455 150 455 235 L400 235 Z" fill="#9A5A28" opacity=".4"/>
<rect x="285" y="235" width="230" height="65" fill="#7A3C14"/>
<rect x="368" y="250" width="64" height="50" rx="24" fill="#FBF3E4"/>
<path d="M400 70 Q410 84 404 96 L396 96 Q390 84 400 70" fill="#9A6B1E"/>
<g transform="translate(400 355)">
<path d="M-52 0 Q0 34 52 0 L44 22 Q0 44 -44 22 Z" fill="#9A6B1E"/>
<ellipse cx="0" cy="0" rx="52" ry="10" fill="#E8A860"/>
<circle cx="-14" cy="-8" r="7" fill="#FBF3E4"/><circle cx="4" cy="-11" r="7" fill="#FBF3E4"/><circle cx="18" cy="-6" r="6" fill="#FBF3E4"/>
</g>
<ellipse cx="30" cy="470" rx="9" ry="20" fill="#A0C8A8" opacity="0.5" transform="rotate(18 30 470)"/>
<ellipse cx="106" cy="470" rx="9" ry="20" fill="#A0C8A8" opacity="0.5" transform="rotate(18 106 470)"/>
<ellipse cx="182" cy="470" rx="9" ry="20" fill="#A0C8A8" opacity="0.5" transform="rotate(18 182 470)"/>
<ellipse cx="258" cy="470" rx="9" ry="20" fill="#A0C8A8" opacity="0.5" transform="rotate(18 258 470)"/>
<ellipse cx="334" cy="470" rx="9" ry="20" fill="#A0C8A8" opacity="0.5" transform="rotate(18 334 470)"/>
<ellipse cx="410" cy="470" rx="9" ry="20" fill="#A0C8A8" opacity="0.5" transform="rotate(18 410 470)"/>
<ellipse cx="486" cy="470" rx="9" ry="20" fill="#A0C8A8" opacity="0.5" transform="rotate(18 486 470)"/>
<ellipse cx="562" cy="470" rx="9" ry="20" fill="#A0C8A8" opacity="0.5" transform="rotate(18 562 470)"/>
<ellipse cx="638" cy="470" rx="9" ry="20" fill="#A0C8A8" opacity="0.5" transform="rotate(18 638 470)"/>
<ellipse cx="714" cy="470" rx="9" ry="20" fill="#A0C8A8" opacity="0.5" transform="rotate(18 714 470)"/>
<ellipse cx="790" cy="470" rx="9" ry="20" fill="#A0C8A8" opacity="0.5" transform="rotate(18 790 470)"/>
</svg>
